Normalized EMG Linear Envelopes
nRows=27
nColumns=17

endheader
time	        VM	        VL	        RF	       GRA	        TA	   ADDLONG	   SEMIMEM	      BFLH	        GM	        GL	       TFL	   GLUTMAX	   GLUTMED	      PIRI	    OBTINT	        QF	
1.685	  0.050646	  0.044365	  0.291309	  0.181606	  0.208982	  0.077640	  0.036654	  0.067232	  0.031358	  0.026913	  0.075900	  0.011199	  0.075442	  0.315082	  1.061015	  0.160842	
1.6855	  0.050566	  0.044282	  0.290108	  0.180445	  0.207145	  0.077425	  0.036663	  0.066444	  0.031230	  0.026706	  0.074219	  0.011529	  0.076656	  0.318671	  1.069244	  0.161937	
1.686	  0.050490	  0.044199	  0.288896	  0.179298	  0.205312	  0.077229	  0.036697	  0.065663	  0.031106	  0.026504	  0.072564	  0.011873	  0.077884	  0.322308	  1.077475	  0.163030	
1.6865	  0.050417	  0.044116	  0.287672	  0.178166	  0.203482	  0.077052	  0.036756	  0.064890	  0.030988	  0.026306	  0.070934	  0.012233	  0.079124	  0.325990	  1.085701	  0.164120	
1.687	  0.050348	  0.044035	  0.286437	  0.177049	  0.201656	  0.076894	  0.036841	  0.064125	  0.030876	  0.026113	  0.069330	  0.012609	  0.080376	  0.329717	  1.093914	  0.165208	
1.6875	  0.050283	  0.043955	  0.285189	  0.175946	  0.199833	  0.076755	  0.036952	  0.063370	  0.030769	  0.025924	  0.067752	  0.013000	  0.081641	  0.333487	  1.102105	  0.166293	
1.688	  0.050222	  0.043875	  0.283929	  0.174857	  0.198013	  0.076634	  0.037090	  0.062624	  0.030668	  0.025740	  0.066200	  0.013407	  0.082917	  0.337298	  1.110266	  0.167376	
1.6885	  0.050166	  0.043797	  0.282657	  0.173783	  0.196196	  0.076530	  0.037255	  0.061888	  0.030573	  0.025561	  0.064674	  0.013829	  0.084205	  0.341150	  1.118389	  0.168456	
1.689	  0.050115	  0.043720	  0.281372	  0.172722	  0.194381	  0.076444	  0.037448	  0.061163	  0.030485	  0.025386	  0.063174	  0.014269	  0.085506	  0.345040	  1.126465	  0.169535	
1.6895	  0.050068	  0.043644	  0.280073	  0.171676	  0.192568	  0.076375	  0.037669	  0.060450	  0.030403	  0.025217	  0.061699	  0.014724	  0.086817	  0.348966	  1.134486	  0.170612	
1.69	  0.050027	  0.043569	  0.278761	  0.170644	  0.190757	  0.076322	  0.037918	  0.059748	  0.030328	  0.025053	  0.060251	  0.015197	  0.088140	  0.352928	  1.142442	  0.171689	
1.6905	  0.049991	  0.043496	  0.277435	  0.169626	  0.188947	  0.076286	  0.038195	  0.059060	  0.030260	  0.024894	  0.058828	  0.015686	  0.089475	  0.356923	  1.150324	  0.172765	
1.691	  0.049961	  0.043424	  0.276094	  0.168621	  0.187139	  0.076265	  0.038503	  0.058385	  0.030199	  0.024741	  0.057432	  0.016192	  0.090821	  0.360949	  1.158126	  0.173842	
1.6915	  0.049936	  0.043353	  0.274738	  0.167631	  0.185332	  0.076261	  0.038840	  0.057725	  0.030146	  0.024593	  0.056061	  0.016716	  0.092178	  0.365005	  1.165836	  0.174919	
1.692	  0.049918	  0.043284	  0.273366	  0.166655	  0.183526	  0.076271	  0.039207	  0.057081	  0.030101	  0.024450	  0.054717	  0.017257	  0.093546	  0.369089	  1.173448	  0.175997	
1.6925	  0.049905	  0.043216	  0.271979	  0.165693	  0.181721	  0.076296	  0.039605	  0.056452	  0.030064	  0.024314	  0.053398	  0.017816	  0.094925	  0.373200	  1.180953	  0.177078	
1.693	  0.049900	  0.043150	  0.270574	  0.164746	  0.179917	  0.076336	  0.040035	  0.055840	  0.030036	  0.024184	  0.052105	  0.018393	  0.096315	  0.377336	  1.188342	  0.178160	
1.6935	  0.049900	  0.043085	  0.269152	  0.163812	  0.178113	  0.076389	  0.040495	  0.055246	  0.030017	  0.024059	  0.050837	  0.018988	  0.097716	  0.381495	  1.195607	  0.179245	
1.694	  0.049908	  0.043021	  0.267711	  0.162893	  0.176309	  0.076456	  0.040988	  0.054670	  0.030006	  0.023942	  0.049596	  0.019602	  0.099127	  0.385675	  1.202739	  0.180333	
1.6945	  0.049922	  0.042959	  0.266252	  0.161988	  0.174505	  0.076537	  0.041514	  0.054113	  0.030005	  0.023830	  0.048379	  0.020233	  0.100548	  0.389875	  1.209731	  0.181424	
1.695	  0.049943	  0.042899	  0.264772	  0.161098	  0.172701	  0.076630	  0.042072	  0.053576	  0.030014	  0.023725	  0.047188	  0.020884	  0.101979	  0.394092	  1.216573	  0.182519	
1.6955	  0.049972	  0.042839	  0.263271	  0.160223	  0.170896	  0.076734	  0.042664	  0.053059	  0.030033	  0.023627	  0.046023	  0.021553	  0.103421	  0.398326	  1.223258	  0.183617	
1.696	  0.050007	  0.042781	  0.261749	  0.159362	  0.169092	  0.076851	  0.043290	  0.052564	  0.030062	  0.023535	  0.044882	  0.022241	  0.104871	  0.402573	  1.229777	  0.184720	
1.6965	  0.050050	  0.042725	  0.260203	  0.158518	  0.167287	  0.076979	  0.043950	  0.052091	  0.030101	  0.023451	  0.043767	  0.022948	  0.106332	  0.406831	  1.236122	  0.185827	
1.697	  0.050101	  0.042669	  0.258635	  0.157689	  0.165482	  0.077117	  0.044644	  0.051640	  0.030152	  0.023374	  0.042676	  0.023675	  0.107801	  0.411099	  1.242282	  0.186939	
1.6975	  0.050159	  0.042615	  0.257042	  0.156876	  0.163676	  0.077265	  0.045374	  0.051212	  0.030213	  0.023305	  0.041610	  0.024421	  0.109280	  0.415373	  1.248249	  0.188056	
1.698	  0.050225	  0.042561	  0.255425	  0.156080	  0.161871	  0.077422	  0.046139	  0.050809	  0.030286	  0.023243	  0.040569	  0.025186	  0.110768	  0.419652	  1.254014	  0.189179	
